<?xml version="1.0" encoding="UTF-8" standalone="no"?>
<svg
   xmlns="http://www.w3.org/2000/svg"
   xmlns:xlink="http://www.w3.org/1999/xlink"
   version="1.1"
   width="1096.236"
   height="1059.422"
   viewBox="0 0 1096.236 1059.422">
  <!-- Cerchio giallo -->
  <ellipse
     cx="548.118"
     cy="529.711"
     rx="548.118"
     ry="529.711"
     fill="#edf601" />
  <!-- Lettera P -->
  <path
     fill="#3130ce"
     d="M 91.148,835.188 L 91.148,396.030 L 233.440,396.030
        C 287.361,396.030 322.510,398.228 338.886,402.620
        C 364.049,409.211 385.118,423.540 402.094,445.607
        C 419.069,467.675 427.556,496.184 427.557,531.132
        C 427.556,558.093 422.663,580.760 412.878,599.133
        C 403.092,617.506 390.660,631.935 375.582,642.420
        C 360.504,652.904 345.176,659.844 329.599,663.239
        C 308.430,667.433 277.775,669.530 237.633,669.529
        L 179.818,669.529 L 179.818,835.188 Z
        M 180.488,470.321 L 180.488,594.939 L 229.017,594.939
        C 263.966,594.939 287.332,592.643 299.115,588.049
        C 310.897,583.456 320.134,576.266 326.824,566.480
        C 333.514,556.695 336.859,545.312 336.860,532.330
        C 336.859,516.354 332.166,503.173 322.780,492.788
        C 313.393,482.404 301.511,475.913 287.132,473.317
        C 276.547,471.320 255.278,470.322 223.325,470.321 Z" />
  <!-- Lettera T -->
  <path
     fill="#3130ce"
     d="M 600.532,835.188 L 600.532,470.321 L 470.222,470.321
        L 470.222,396.030 L 819.212,396.030 L 819.212,470.321
        L 689.202,470.321 L 689.202,835.188 Z" />
</svg>
