<svg version="1.1" id="Layer_1" xmlns:x="ns_extend;" xmlns:i="ns_ai;" xmlns:graph="ns_graphs;" xmlns="http://www.w3.org/2000/svg" xmlns:xlink="http://www.w3.org/1999/xlink" x="0px" y="0px" viewBox="0 0 347.7 45" style="enable-background:new 0 0 347.7 45;" xml:space="preserve">
 <style type="text/css">
  .st0{fill:#0047BB;}
 </style>
 <metadata>
  <sfw xmlns="ns_sfw;">
   <slices>
   </slices>
   <sliceSourceBounds bottomLeftOrigin="true" height="45" width="347.7" x="-38.2" y="-242.8">
   </sliceSourceBounds>
  </sfw>
 </metadata>
 <g>
  <g>
   <path class="st0" d="M341.6,25.7c0.1-5.1-2.2-9.1-7.8-9.1c-4.8,0-7.7,4.1-7.7,9.1H341.6z M326.1,29.7c-0.4,5.3,1.8,10.9,7.7,10.9
			c4.5,0,6.7-1.8,7.4-6.2h6.1c-0.9,6.9-6.3,10.4-13.6,10.4c-9.8,0-13.7-6.9-13.7-15.9c0-8.9,4.5-16.4,14.2-16.4
			c9.1,0.2,13.4,6,13.4,14.4v2.9H326.1z M294.6,17.9h0.1c1.9-3.8,6.2-5.4,9.2-5.4c2.1,0,11.5,0.5,11.5,10.3v21.1h-5.8V24.7
			c0-5-2.1-7.8-7-7.8c0,0-3.2-0.2-5.6,2.2c-0.8,0.9-2.4,2.2-2.4,8.2v16.6h-5.8V13.4h5.7V17.9z M271.4,29.1c-3.5,0.2-8.2,1.5-8.2,5.9
			c0,3.8,2.6,5.7,6,5.7c6.8,0,8.1-5.9,8-11.6H271.4z M277.2,25c0-5.3-0.3-8.4-6.4-8.4c-2.9,0-5.6,1.7-5.7,4.9H259
			c0.3-6.7,5.5-9.1,11.5-9.1c6.3,0,12.5,1.9,12.5,10.4v14.6c0,1.3,0.1,3.9,0.2,6.4h-3.9c-0.5,0-1.6,0.3-1.6-0.4
			c-0.1-1.4-0.2-2.7-0.3-4.1h-0.1c-1.9,3.8-5.3,5.5-9.5,5.5c-5.3,0-10.6-2.7-10.6-8.7c0-8.6,7.6-11.1,14.8-11.1H277.2z M245.6,0h6.9
			v6.3h-6.9V0z M246.2,13.4h5.8v30.5h-5.8V13.4z M233.2,0h5.8v43.9h-5.8V0z M215.9,29.1c-3.5,0.2-8.2,1.5-8.2,5.9
			c0,3.8,2.6,5.7,6,5.7c6.8,0,8.1-5.9,8-11.6H215.9z M221.7,25c0-5.3-0.3-8.4-6.4-8.4c-2.9,0-5.7,1.7-5.7,4.9h-6.1
			c0.3-6.7,5.5-9.1,11.6-9.1c6.3,0,12.5,1.9,12.5,10.4v14.6c0,1.3,0.1,3.9,0.2,6.4h-3.9c-0.5,0-1.6,0.3-1.6-0.4
			c-0.1-1.4-0.2-2.7-0.3-4.1h-0.1c-1.9,3.8-5.3,5.5-9.5,5.5c-5.3,0-10.6-2.7-10.6-8.7c0-8.6,7.6-11.1,14.8-11.1H221.7z M186.2,13.4
			V6.9L192,5v8.3l7.1-0.2v4.3l-7.1-0.1v19.7c0,2.2,1.7,3.2,3.8,3.2c0.9,0,2.1-0.1,3-0.4v4.4c-1.3,0.1-2.6,0.4-4,0.4
			c-1.4,0-2.5-0.1-3.9-0.3c-0.9-0.2-2.4-0.7-3.4-2c-1-1.5-1.3-1.6-1.3-5.7V17.4l-5.2,0.1v-4.3L186.2,13.4z M170.6,0h6.9v6.3h-6.9V0z
			 M171.2,13.4h5.8v30.5h-5.8V13.4z M112.7,13.7V9.1l11.5-4.4v9h6.7v7.3h-6.7V33c0,0.8-0.5,4.7,2.2,4.7c1.5,0,3.1,0,4.4-0.2v6.8
			c-2.6,0.5-4.5,0.6-6.2,0.6c-7.8,0-12.5-1.1-11.9-10.4V20.9h-5.9v-7.3H112.7z M93.7,23.1c0-1-0.2-1.9-0.7-2.5
			c-0.6-0.7-1.6-1.1-3.2-1.1c-1.7,0-2.7,1-2.7,2.7c0,2.2,4.7,2.1,11.9,4.4c3.6,1.2,6.1,3.4,6.1,8.4c0,8.1-7.6,10.1-14.5,10.1
			c-7.5,0-14.7-1.5-14.7-10.8h10.9c-0.2,0.9,0.1,1.9,0.8,2.7c0.7,0.8,1.6,1.4,2.7,1.4c2.2,0,3.9-0.8,3.9-2.8c0-5.4-18-2.2-18-13.2
			c0-7.5,8-9.6,14.1-9.6c7.2,0,13.9,1.9,14.4,10.3H93.7z M56,38.3c4.9,0,5.9-5.1,5.9-9.4s-1-9.4-5.9-9.4c-4.8,0-5.9,5.1-5.9,9.4
			S51.1,38.3,56,38.3 M73.7,28.9C73.7,40.1,65.5,45,56,45c-9.5,0-17.7-4.9-17.7-16.1c0-11.2,8.2-16.1,17.7-16.1
			C65.5,12.8,73.7,17.7,73.7,28.9 M18.4,20c4.8-0.2,6.8-2.4,6.8-5.6c0-3.2-2-5.4-6.8-5.6h-6.2V20H18.4z M0,44.1V0.3h20.1
			c10.7,0,17.8,3.5,17.8,14.1c0,10.6-7,14.1-17.8,14.1h-8v15.6H0z M155.3,25c0-1.6-0.5-3.3-1.4-4.5c-0.9-1.3-2.2-2.1-4-1.9
			c-4,0.2-5,3-5.3,6.5H155.3z M144.4,31.2c-0.1,3.9,1,7.3,5.3,7.3c3.2,0,5.2-1.5,5.6-4.4h10.7c-0.4,3.9-2.8,6.8-5.8,8.5
			c-2.7,1.7-6.1,2.4-9.6,2.4c-12.2,0-17-5.2-17-17.1c0-9.6,7.2-15.1,16.4-15.1c12.4,0,16.3,7.1,16.3,18.4H144.4z">
   </path>
  </g>
 </g>
</svg>