<svg xmlns="http://www.w3.org/2000/svg" width="512" height="512" viewBox="0 0 512 512">
<g>
<path d="M 156.00 280.00 L 156.00 340.00 L 109.00 340.00 L 109.00 172.00 L 156.25 172.01 C209.29,172.03 215.99,172.68 227.82,178.98 C239.57,185.25 249.00,197.38 252.42,210.64 C255.68,223.31 253.97,241.20 248.45,252.09 C242.83,263.19 230.87,272.67 217.82,276.40 C211.10,278.31 188.98,279.96 169.75,279.99 ZM 147.68 308.00 C148.43,310.10 149.39,307.44 151.57,297.25 C152.53,292.71 153.70,289.00 154.16,289.00 C154.62,289.00 155.00,286.06 155.00,282.47 C155.00,275.39 156.43,273.54 160.12,275.85 C162.35,277.23 207.72,277.26 208.58,275.88 C208.87,275.39 210.90,275.00 213.07,275.00 C215.25,275.00 217.92,274.55 219.01,274.00 L 222.99 272.00 C224.08,271.45 225.77,271.00 226.75,271.00 C227.72,271.00 229.09,270.08 229.79,268.96 C230.49,267.84 231.50,267.19 232.02,267.51 C233.51,268.43 242.81,259.16 244.18,255.38 C244.85,253.52 245.71,252.00 246.09,252.00 C247.28,252.00 250.35,244.69 251.32,239.50 C252.52,233.16 252.65,217.74 251.56,212.50 C250.73,208.54 246.25,198.26 243.78,194.62 C239.75,188.71 227.30,179.02 223.71,179.01 C222.73,179.00 220.85,178.29 219.52,177.42 C214.84,174.35 205.45,173.72 158.25,173.32 L 111.00 172.91 L 111.00 230.25 C111.00,264.70 111.38,287.98 111.94,288.55 C112.46,289.07 113.02,291.64 113.19,294.27 C113.36,296.89 113.84,299.02 114.25,299.02 C114.66,299.01 120.84,299.00 127.97,299.00 L 140.95 299.00 L 142.58 295.85 C144.62,291.90 145.67,293.27 146.53,300.99 C146.87,304.02 147.38,307.17 147.68,308.00 ZM 356.00 206.03 L 356.00 340.00 L 308.00 340.00 L 308.00 206.03 L 282.75 205.77 L 257.50 205.50 L 257.23 188.75 L 256.95 172.00 L 408.05 172.00 L 407.77 188.75 L 407.50 205.50 L 381.75 205.77 ZM 312.73 302.00 L 313.44 308.50 L 314.21 299.56 C314.64,294.64 315.43,290.17 315.96,289.64 C317.15,288.45 317.46,289.32 319.05,298.32 C320.19,304.77 321.36,305.97 322.17,301.50 C322.50,299.63 323.42,299.48 336.57,299.22 L 350.62 298.95 L 351.79 286.22 C352.43,279.23 353.26,258.31 353.62,239.76 C354.09,215.60 354.62,205.73 355.47,205.02 C356.16,204.45 367.08,203.92 381.58,203.77 L 406.50 203.50 L 406.81 188.25 L 407.11 173.00 L 259.00 173.00 L 259.00 187.89 C259.00,200.55 259.24,202.88 260.58,203.39 C261.45,203.73 272.45,204.00 285.02,204.00 C299.93,204.00 308.11,204.37 308.53,205.05 C308.89,205.63 309.12,218.12 309.05,232.80 C308.98,247.49 309.37,263.77 309.91,269.00 C310.45,274.23 311.14,282.33 311.45,287.00 C311.77,291.67 312.34,298.42 312.73,302.00 ZM 191.00 247.69 C184.68,249.41 156.11,249.44 155.45,247.73 C155.18,247.03 155.08,236.56 155.23,224.48 L 155.50 202.50 L 173.00 202.54 C195.80,202.58 199.11,203.62 204.84,212.50 C207.05,215.93 207.42,217.64 207.46,224.50 C207.53,237.71 202.71,244.49 191.00,247.69 ZM 156.50 203.50 L 155.96 247.00 L 170.93 247.00 C188.79,247.00 194.35,245.98 199.45,241.78 C204.45,237.66 206.00,233.61 205.98,224.78 C205.96,215.18 203.50,210.60 196.26,206.70 C191.20,203.98 190.62,203.90 173.78,203.70 Z" fill="rgb(12,77,153)"/>
<path d="M 147.68 308.00 C147.38,307.17 146.87,304.02 146.53,300.99 C145.67,293.27 144.62,291.90 142.58,295.85 L 140.95 299.00 L 127.97 299.00 C120.84,299.00 114.66,299.01 114.25,299.02 C113.84,299.02 113.36,296.89 113.19,294.27 C113.02,291.64 112.46,289.07 111.94,288.55 C111.38,287.98 111.00,264.70 111.00,230.25 L 111.00 172.91 L 158.25 173.32 C205.45,173.72 214.84,174.35 219.52,177.42 C220.85,178.29 222.73,179.00 223.71,179.01 C227.30,179.02 239.75,188.71 243.78,194.62 C246.25,198.26 250.73,208.54 251.56,212.50 C252.65,217.74 252.52,233.16 251.32,239.50 C250.35,244.69 247.28,252.00 246.09,252.00 C245.71,252.00 244.85,253.52 244.18,255.38 C242.81,259.16 233.51,268.43 232.02,267.51 C231.50,267.19 230.49,267.84 229.79,268.96 C229.09,270.08 227.72,271.00 226.75,271.00 C225.77,271.00 224.08,271.45 222.99,272.00 L 219.01 274.00 C217.92,274.55 215.25,275.00 213.07,275.00 C210.90,275.00 208.87,275.39 208.58,275.88 C207.72,277.26 162.35,277.23 160.12,275.85 C156.43,273.54 155.00,275.39 155.00,282.47 C155.00,286.06 154.62,289.00 154.16,289.00 C153.70,289.00 152.53,292.71 151.57,297.25 C149.39,307.44 148.43,310.10 147.68,308.00 ZM 312.73 302.00 C312.34,298.42 311.77,291.67 311.45,287.00 C311.14,282.33 310.45,274.23 309.91,269.00 C309.37,263.77 308.98,247.49 309.05,232.80 C309.12,218.12 308.89,205.63 308.53,205.05 C308.11,204.37 299.93,204.00 285.02,204.00 C272.45,204.00 261.45,203.73 260.58,203.39 C259.24,202.88 259.00,200.55 259.00,187.89 L 259.00 173.00 L 407.11 173.00 L 406.81 188.25 L 406.50 203.50 L 381.58 203.77 C367.08,203.92 356.16,204.45 355.47,205.02 C354.62,205.73 354.09,215.60 353.62,239.76 C353.26,258.31 352.43,279.23 351.79,286.22 L 350.62 298.95 L 336.57 299.22 C323.42,299.48 322.50,299.63 322.17,301.50 C321.36,305.97 320.19,304.77 319.05,298.32 C317.46,289.32 317.15,288.45 315.96,289.64 C315.43,290.17 314.64,294.64 314.21,299.56 L 313.44 308.50 ZM 191.00 247.69 C202.71,244.49 207.53,237.71 207.46,224.50 C207.42,217.64 207.05,215.93 204.84,212.50 C199.11,203.62 195.80,202.58 173.00,202.54 L 155.50 202.50 L 155.23 224.48 C155.08,236.56 155.18,247.03 155.45,247.73 C156.11,249.44 184.68,249.41 191.00,247.69 Z" fill="rgb(2,75,187)"/>
<path d="M 380.00 457.12 C373.53,458.49 158.96,459.27 142.50,457.98 C115.04,455.84 95.71,447.83 79.94,432.06 C70.15,422.27 61.04,406.64 58.04,394.50 C53.69,376.91 53.74,378.35 53.30,267.00 C52.80,143.37 53.30,131.35 59.67,112.03 C68.18,86.22 92.84,63.80 119.50,57.64 C122.11,57.04 124.32,56.52 126.55,56.08 C139.58,53.50 153.14,53.50 252.32,53.50 L 256.00 53.50 L 259.68 53.50 C358.86,53.50 372.42,53.50 385.45,56.08 C387.68,56.52 389.89,57.04 392.50,57.64 C421.97,64.45 447.60,90.08 454.36,119.50 C454.97,122.14 455.49,124.37 455.93,126.62 C458.50,139.66 458.50,153.21 458.50,251.41 L 458.50 255.00 C458.50,373.99 458.45,375.75 454.29,393.00 C449.74,411.88 436.49,430.86 420.12,441.93 C408.59,449.74 400.64,452.75 380.00,457.12 ZM 156.00 280.00 L 169.75 279.99 C188.98,279.96 211.10,278.31 217.82,276.40 C230.87,272.67 242.83,263.19 248.45,252.09 C253.97,241.20 255.68,223.31 252.42,210.64 C249.00,197.38 239.57,185.25 227.82,178.98 C215.99,172.68 209.29,172.03 156.25,172.01 L 109.00 172.00 L 109.00 340.00 L 156.00 340.00 ZM 356.00 206.03 L 407.50 205.50 L 407.77 188.75 L 408.05 172.00 L 256.95 172.00 L 257.23 188.75 L 257.50 205.50 L 282.75 205.77 L 308.00 206.03 L 308.00 340.00 L 356.00 340.00 ZM 156.50 203.50 L 173.78 203.70 C190.62,203.90 191.20,203.98 196.26,206.70 C203.50,210.60 205.96,215.18 205.98,224.78 C206.00,233.61 204.45,237.66 199.45,241.78 C194.35,245.98 188.79,247.00 170.93,247.00 L 155.96 247.00 Z" fill="rgb(237,218,5)"/>
<path d="M 0.00 256.00 L 0.00 0.00 L 256.00 0.00 L 512.00 0.00 L 512.00 256.00 L 512.00 512.00 L 256.00 512.00 L 0.00 512.00 L 0.00 256.00 ZM 380.00 457.12 C400.64,452.75 408.59,449.74 420.12,441.93 C436.49,430.86 449.74,411.88 454.29,393.00 C458.45,375.75 458.50,373.99 458.50,255.00 C458.50,136.28 458.54,137.69 454.36,119.50 C447.60,90.08 421.97,64.45 392.50,57.64 C374.36,53.46 375.80,53.50 256.00,53.50 C136.20,53.50 137.64,53.46 119.50,57.64 C92.84,63.80 68.18,86.22 59.67,112.03 C53.30,131.35 52.80,143.37 53.30,267.00 C53.74,378.35 53.69,376.91 58.04,394.50 C61.04,406.64 70.15,422.27 79.94,432.06 C95.71,447.83 115.04,455.84 142.50,457.98 C158.96,459.27 373.53,458.49 380.00,457.12 Z" fill="rgb(254,254,253)"/>
</g>
</svg>