<svg xmlns="http://www.w3.org/2000/svg" viewBox="0 0 1096.236 1059.422">
  <ellipse cx="548.118" cy="529.711" rx="548.118" ry="529.711" fill="#edf601"/>
  <path d="M 91.148 835.188 L 91.148 396.03 L 233.44 396.03 C 287.361 396.03 322.51 398.228 338.886 402.62 C 364.049 409.211 385.118 423.54 402.094 445.607 C 419.069 467.675 427.556 496.184 427.557 531.132 C 427.556 558.093 422.663 580.76 412.878 599.133 C 403.092 617.506 390.66 631.935 375.582 642.42 C 360.504 652.904 345.176 659.844 329.599 663.239 C 308.43 667.433 277.775 669.53 237.633 669.529 L 179.818 669.529 L 179.818 835.188 Z M 180.488 470.321 L 180.488 594.939 L 229.017 594.939 C 263.966 594.939 287.332 592.643 299.115 588.049 C 310.897 583.456 320.134 576.266 326.824 566.48 C 333.514 556.695 336.859 545.312 336.86 532.33 C 336.859 516.354 332.166 503.173 322.78 492.788 C 313.393 482.404 301.511 475.913 287.132 473.317 C 276.547 471.32 255.278 470.322 223.325 470.321 Z" fill="#3130ce"/>
  <path d="M 600.532 835.188 L 600.532 470.321 L 470.222 470.321 L 470.222 396.03 L 819.212 396.03 L 819.212 470.321 L 689.202 470.321 L 689.202 835.188 Z" fill="#3130ce"/>
</svg>
